# xmcd
#
# Track frame offsets:
#	150
#	14710
#	28309
#	43377
#	60419
#	76118
#	92021
#	105532
#	128016
#	143400
#	161322
#
# Disc length: 2395 seconds
#
# Revision: 0
# Processed by: cddbd v1.5.2PL0 Copyright (c) Steve Scherf et al.
# Submitted via: audiograbber 1.83.01
#
DISCID=8409590b
DTITLE=Danielle Peck - Danielle Peck
DYEAR=2006
DGENRE=Country
TTITLE0=Finding A Good Man
TTITLE1=Isn't That Erverything
TTITLE2=Kiss You On The Mouth
TTITLE3=Fallin' Apart
TTITLE4=I Don`t
TTITLE5=Sucks To Be You
TTITLE6=Honky-Tonk Time
TTITLE7=Thisty Again
TTITLE8=Only The Lonley Talkin`
TTITLE9=A Woman Does Too
TTITLE10=Somebody For You
EXTD=
EXTT0=
EXTT1=
EXTT2=
EXTT3=
EXTT4=
EXTT5=
EXTT6=
EXTT7=
EXTT8=
EXTT9=
EXTT10=
PLAYORDER=
